<svg class="icon" viewBox="0 0 1024 1024" xmlns="http://www.w3.org/2000/svg" width="200" height="200"><path d="m531.847 5.248 17.707 11.35 20.053 12.074 12.502 7.168 21.504 11.861 24.49 12.715 17.835 8.79c3.072 1.45 6.187 2.986 9.344 4.437l19.413 8.832 20.352 8.746c76.16 31.659 168.918 58.454 255.446 51.84a29.867 29.867 0 0 1 21.76 6.955 26.027 26.027 0 0 1 9.13 19.541v356.011l-.725 15.957-1.11 12.672-1.066 9.643-1.365 10.496-1.792 11.307-2.219 12.074-2.688 12.8-1.536 6.656-3.456 13.739-4.053 14.293a436.082 436.082 0 0 1-7.254 22.358l-5.674 15.488c-5.078 13.013-10.88 26.453-17.579 40.106l-8.49 16.47c-57.9 107.733-172.374 225.92-398.55 284.288a33.28 33.28 0 0 1-9.13-.555l-5.974-.043-7.808-1.578-13.653-3.328-14.379-3.968-17.323-5.376-13.056-4.395-14.08-5.12-15.018-5.803-7.85-3.2-16.257-7.04-8.405-3.84-17.28-8.277c-119.894-59.605-276.95-181.59-320.81-419.243a25.045 25.045 0 0 1 0-4.522V169.259a26.027 26.027 0 0 1 9.471-19.798 29.61 29.61 0 0 1 16.981-6.741l18.262.427 11.52-.043 15.872-.597 19.242-1.28 14.592-1.451 7.808-.939 16.555-2.218c2.859-.427 5.76-.854 8.747-1.366l18.346-3.2 9.558-1.877 19.968-4.352C304.733 108.331 399.623 73.6 497.799 5.248a30.208 30.208 0 0 1 34.048 0zm-16.64 67.03-9.813 6.4c-132.864 84.48-265.387 121.429-381.91 127.573l-12.287.512v339.541l2.346 11.733c27.18 127.062 91.648 223.488 183.382 294.912l12.117 9.174c63.872 47.061 132.053 77.141 189.44 92.757l17.792 4.437 7.168-1.92c158.293-44.373 262.485-122.538 324.992-224.213l6.784-11.392c23.467-40.832 39.253-83.37 48.555-125.781a390.101 390.101 0 0 0 8.96-64.427l.298-8.32-.085-315.35-6.955-.127c-78.848-2.816-162.176-25.259-247.552-61.782l-18.346-8.064a1178.155 1178.155 0 0 1-111.19-57.386l-13.653-8.278z" fill="#258FFF"/><path d="M736.349 528.64c42.24 0 76.544 34.261 76.544 76.501a76.8 76.8 0 0 1-76.544 76.544c-32.854 0-60.843-20.693-71.68-49.749H550.877l-99.243 94.933a26.752 26.752 0 0 1-18.773 7.51h-62.89a76.544 76.544 0 1 1-42.582-97.579c20.053 8.277 35.328 24.448 42.666 44.075h52.182l99.242-94.976a26.752 26.752 0 0 1 18.475-7.51H664.67a76.544 76.544 0 0 1 71.68-49.749zM299.442 684.63a23.04 23.04 0 1 0 22.485 27.818 18.645 18.645 0 0 1-.554-4.821 26.88 26.88 0 0 1 .426-4.822 22.784 22.784 0 0 0-22.4-18.176zM736.35 582.143a23.04 23.04 0 1 0 0 45.995 23.04 23.04 0 0 0 0-45.995zM374.877 416.768c33.621 0 62.208 21.76 72.49 51.925h65.408a67.072 67.072 0 0 1 88.064-37.504c25.174 10.368 41.6 34.902 41.6 62.123a67.413 67.413 0 0 1-66.645 67.157 67.157 67.157 0 0 1-61.141-38.229H445.66a76.544 76.544 0 1 1-70.827-105.387zm0 53.504a23.04 23.04 0 1 0 23.04 23.04 23.296 23.296 0 0 0-23.04-23.04zm200.96 9.387v.512a13.653 13.653 0 1 0 13.653 13.653 13.653 13.653 0 0 0-13.653-14.165zM345.949 379.563a76.544 76.544 0 1 1 71.68-103.254h73.6c7.594.086 14.762 3.414 19.797 9.088l73.557 81.878h43.35a76.544 76.544 0 0 1 148.266 26.752 76.8 76.8 0 0 1-77.056 76.544 76.544 76.544 0 0 1-71.21-49.75h-55.296a26.752 26.752 0 0 1-19.798-9.13l-73.6-81.878h-61.653a76.8 76.8 0 0 1-71.595 49.75zm353.194-8.534a23.04 23.04 0 1 0 0 45.995 23.04 23.04 0 0 0 0-45.995zm-353.152-90.965a23.04 23.04 0 1 0 0 45.995 23.04 23.04 0 0 0 0-45.995z" fill="#258FFF"/></svg>