<?xml version="1.0" standalone="no"?><!DOCTYPE svg PUBLIC "-//W3C//DTD SVG 1.1//EN" "http://www.w3.org/Graphics/SVG/1.1/DTD/svg11.dtd"><svg t="1734757500053" class="icon" viewBox="0 0 1024 1024" version="1.1" xmlns="http://www.w3.org/2000/svg" p-id="4156" xmlns:xlink="http://www.w3.org/1999/xlink" width="200" height="200"><path d="M531.847467 5.248l17.706666 11.349333 20.053334 12.074667 12.501333 7.168 21.504 11.861333 24.490667 12.714667 17.834666 8.789333c3.072 1.450667 6.186667 2.986667 9.344 4.437334l19.413334 8.832 20.352 8.746666c76.16 31.658667 168.917333 58.453333 255.445333 51.84a29.866667 29.866667 0 0 1 21.76 6.954667 26.026667 26.026667 0 0 1 9.130667 19.541333v356.010667l-0.725334 15.957333-1.109333 12.672-1.066667 9.642667-1.365333 10.496-1.792 11.306667-2.218667 12.074666-2.688 12.8-1.536 6.656-3.456 13.738667-4.053333 14.293333c-2.133333 7.253333-4.565333 14.762667-7.253333 22.357334l-5.674667 15.488c-5.077333 13.013333-10.88 26.453333-17.578667 40.106666l-8.490666 16.469334c-57.898667 107.733333-172.373333 225.92-398.549334 284.288a33.28 33.28 0 0 1-9.130666-0.554667l-5.973334-0.042667-7.808-1.578666-13.653333-3.328-14.378667-3.968-17.322666-5.376-13.056-4.394667-14.08-5.12-15.018667-5.802667-7.850667-3.2-16.256-7.04-8.405333-3.84-17.28-8.277333C243.719467 911.786667 86.663467 789.802667 42.802133 552.149333a25.045333 25.045333 0 0 1 0-4.522666V169.258667a26.026667 26.026667 0 0 1 9.472-19.797334 29.610667 29.610667 0 0 1 16.981334-6.741333l18.261333 0.426667 11.52-0.042667 15.872-0.597333 19.242667-1.28 14.592-1.450667 7.808-0.938667 16.554666-2.218666c2.858667-0.426667 5.76-0.853333 8.746667-1.365334l18.346667-3.2 9.557333-1.877333 19.968-4.352c75.008-17.493333 169.898667-52.224 268.074667-120.576a30.208 30.208 0 0 1 34.048 0z m-16.64 67.029333l-9.813334 6.4c-132.864 84.48-265.386667 121.429333-381.909333 127.573334l-12.288 0.512v339.541333l2.346667 11.733333c27.178667 127.061333 91.648 223.488 183.381333 294.912l12.117333 9.173334c63.872 47.061333 132.053333 77.141333 189.44 92.757333l17.792 4.437333 7.168-1.92c158.293333-44.373333 262.485333-122.538667 324.992-224.213333l6.784-11.392c23.466667-40.832 39.253333-83.370667 48.554667-125.781333a390.101333 390.101333 0 0 0 8.96-64.426667l0.298667-8.32-0.085334-315.349333-6.954666-0.128c-78.848-2.816-162.176-25.258667-247.552-61.781334l-18.346667-8.064a1178.154667 1178.154667 0 0 1-111.189333-57.386666l-13.653334-8.277334z" fill="#258FFF" p-id="4157"></path><path d="M736.3488 528.64c42.24 0 76.544 34.261333 76.544 76.501333a76.8 76.8 0 0 1-76.544 76.544c-32.853333 0-60.842667-20.693333-71.68-49.749333H550.8768l-99.242667 94.933333a26.752 26.752 0 0 1-18.773333 7.509334H369.970133a76.544 76.544 0 1 1-42.581333-97.578667c20.053333 8.277333 35.328 24.448 42.666667 44.074667h52.181333l99.242667-94.976a26.752 26.752 0 0 1 18.474666-7.509334h124.714667a76.544 76.544 0 0 1 71.68-49.749333z m-436.906667 155.989333a23.04 23.04 0 1 0 22.485334 27.818667 18.645333 18.645333 0 0 1-0.554667-4.821333 26.88 26.88 0 0 1 0.426667-4.821334 22.784 22.784 0 0 0-22.4-18.176z m436.906667-102.485333a23.04 23.04 0 1 0 0 45.994667 23.04 23.04 0 0 0 0-45.994667zM374.8768 416.768c33.621333 0 62.208 21.76 72.490667 51.925333h65.408a67.072 67.072 0 0 1 88.064-37.504c25.173333 10.368 41.6 34.901333 41.6 62.122667a67.413333 67.413333 0 0 1-66.645334 67.157333 67.157333 67.157333 0 0 1-61.141333-38.229333H445.6608a76.544 76.544 0 1 1-70.826667-105.386667z m0 53.504a23.04 23.04 0 1 0 23.04 23.04 23.296 23.296 0 0 0-23.04-23.04z m200.96 9.386667v0.512a13.653333 13.653333 0 1 0 13.653333 13.653333 13.653333 13.653333 0 0 0-13.653333-14.165333zM345.9488 379.562667a76.544 76.544 0 1 1 71.68-103.253334h73.6c7.594667 0.085333 14.762667 3.413333 19.797333 9.088L584.583467 367.274667h43.349333a76.544 76.544 0 0 1 148.266667 26.752 76.8 76.8 0 0 1-77.056 76.544 76.544 76.544 0 0 1-71.210667-49.749334H572.6368a26.752 26.752 0 0 1-19.797333-9.130666L479.239467 329.813333H417.586133a76.8 76.8 0 0 1-71.594666 49.749334z m353.194667-8.533334a23.04 23.04 0 1 0 0 45.994667 23.04 23.04 0 0 0 0-45.994667zM345.991467 280.064a23.04 23.04 0 1 0 0 45.994667 23.04 23.04 0 0 0 0-45.994667z" fill="#258FFF" p-id="4158"></path></svg>